<?xml version="1.0" ?><svg height="16px" version="1.1" viewBox="0 0 16 16" width="16px" xmlns="http://www.w3.org/2000/svg" xmlns:sketch="http://www.bohemiancoding.com/sketch/ns" xmlns:xlink="http://www.w3.org/1999/xlink"><title/><defs/><g fill="none" fill-rule="evenodd" id="Icons with numbers" stroke="none" stroke-width="1"><g fill="#000000" id="Group" transform="translate(-672.000000, -336.000000)"><path d="M673.000872,339 C672.448106,339 672,339.455664 672,339.995398 L672,348.004602 C672,348.554345 672.444631,349 673.000872,349 L686.999128,349 C687.551894,349 688,348.544336 688,348.004602 L688,339.995398 C688,339.445655 687.555369,339 686.999128,339 L673.000872,339 Z M686,342 L686,344 L687,344 L687,342 L686,342 Z M684,341 L684,342 L685,342 L685,341 L684,341 Z M684,343 L684,344 L685,344 L685,343 L684,343 Z M683,345 L683,346 L684,346 L684,345 L683,345 Z M681,345 L681,346 L682,346 L682,345 L681,345 Z M675,347 L675,348 L676,348 L676,347 L675,347 Z M673,347 L673,348 L674,348 L674,347 L673,347 Z M686,347 L686,348 L687,348 L687,347 L686,347 Z M684,347 L684,348 L685,348 L685,347 L684,347 Z M682,341 L682,342 L683,342 L683,341 L682,341 Z M680,341 L680,342 L681,342 L681,341 L680,341 Z M678,341 L678,342 L679,342 L679,341 L678,341 Z M676,341 L676,342 L677,342 L677,341 L676,341 Z M682,343 L682,344 L683,344 L683,343 L682,343 Z M680,343 L680,344 L681,344 L681,343 L680,343 Z M678,343 L678,344 L679,344 L679,343 L678,343 Z M676,343 L676,344 L677,344 L677,343 L676,343 Z M679,345 L679,346 L680,346 L680,345 L679,345 Z M677,345 L677,346 L678,346 L678,345 L677,345 Z M675,345 L675,346 L676,346 L676,345 L675,345 Z M673,345 L673,346 L674,346 L674,345 L673,345 Z M677,347 L677,348 L683,348 L683,347 L677,347 Z M685,345 L685,346 L687,346 L687,345 L685,345 Z M673,343 L673,344 L675,344 L675,343 L673,343 Z M673,341 L673,342 L675,342 L675,341 L673,341 Z M673,341" id="Rectangle 297"/></g></g></svg>